<?xml version="1.0" standalone="no"?>
<!DOCTYPE svg PUBLIC "-//W3C//DTD SVG 20010904//EN"
 "http://www.w3.org/TR/2001/REC-SVG-20010904/DTD/svg10.dtd">
<svg version="1.0" xmlns="http://www.w3.org/2000/svg"
 width="324.000000pt" height="324.000000pt" viewBox="0 0 324.000000 324.000000"
 preserveAspectRatio="xMidYMid meet">
<metadata>
Created by potrace 1.14, written by Peter Selinger 2001-2017
</metadata>
<g transform="translate(0.000000,324.000000) scale(0.100000,-0.100000)"
fill="#000000" stroke="none">
<path d="M1500 3182 c0 -33 -2 -95 -4 -138 -3 -43 -3 -69 0 -56 3 12 30 43 60
69 64 56 73 81 10 29 -24 -20 -46 -36 -49 -36 -2 0 -1 17 3 39 8 47 1 151 -11
151 -5 0 -9 -26 -9 -58z"/>
<path d="M1582 2975 c-29 -8 -76 -25 -105 -39 -29 -13 -63 -27 -77 -31 -64
-19 -189 -106 -276 -190 -94 -91 -137 -114 -150 -80 -5 12 -9 13 -14 5 -9 -15
-70 -4 -70 12 0 6 -6 6 -15 -2 -8 -7 -25 -10 -40 -6 -33 8 -69 -26 -59 -57 6
-21 6 -21 -13 -4 -18 16 -22 16 -33 2 -7 -8 -17 -15 -23 -15 -6 0 0 11 12 24
15 16 19 26 12 31 -6 3 -9 11 -5 16 5 9 -22 38 -37 39 -4 0 -10 -12 -13 -26
-7 -25 -8 -25 -26 -9 -18 16 -19 16 -19 -1 0 -11 -3 -38 -7 -61 -4 -30 -3 -43
5 -43 6 0 11 -8 11 -17 1 -16 2 -16 13 2 13 21 47 33 47 16 0 -5 6 -16 14 -24
13 -13 11 -22 -15 -77 -42 -88 -35 -89 10 0 29 57 44 75 60 76 20 1 21 -2 15
-45 -3 -25 -12 -64 -20 -86 -7 -21 -11 -41 -9 -43 7 -8 24 44 36 113 10 58 13
64 32 61 15 -2 23 -11 25 -27 4 -35 35 -132 46 -144 5 -6 6 -3 2 10 -15 41
-36 130 -36 150 1 18 2 18 16 -5 11 -18 14 -20 10 -5 l-6 20 15 -20 c8 -11 24
-30 36 -43 16 -17 19 -25 10 -36 -6 -7 -8 -15 -5 -19 3 -3 -4 -42 -15 -86 -12
-44 -21 -102 -21 -128 0 -27 -3 -65 -6 -86 -6 -35 -9 -38 -34 -32 -19 4 -33 1
-44 -10 -20 -20 -20 -19 0 -57 9 -16 11 -27 5 -24 -7 5 -11 -3 -11 -21 0 -20
-3 -24 -9 -14 -7 11 -70 12 -385 4 -207 -6 -379 -13 -382 -15 -2 -3 -2 -12 2
-21 4 -12 13 -15 30 -11 15 4 29 0 40 -11 11 -11 25 -14 45 -10 17 4 29 2 29
-3 0 -6 10 -9 23 -9 38 2 177 -26 177 -36 0 -5 6 -4 14 2 11 9 20 9 38 -1 13
-7 26 -17 29 -21 3 -4 24 -4 47 2 40 8 56 1 30 -15 -6 -4 -66 -9 -132 -11
-268 -8 -386 -15 -386 -25 0 -10 384 -5 638 8 130 7 137 12 146 98 5 53 12 67
22 43 6 -17 -21 -112 -38 -134 -12 -15 -5 -115 15 -213 21 -99 22 -160 3 -160
-8 0 -18 -4 -21 -10 -3 -6 1 -7 9 -4 9 3 16 2 16 -4 0 -14 -22 -21 -53 -15
-35 7 -257 -7 -257 -15 0 -4 21 -6 47 -5 184 9 273 8 273 -4 0 -10 -38 -13
-162 -13 -89 0 -158 -3 -154 -7 4 -5 77 -6 162 -4 108 2 154 0 154 -8 0 -12
-3 -13 -110 -12 -41 0 -104 -4 -140 -9 -52 -7 -34 -8 88 -5 84 1 155 -1 157
-6 8 -12 -22 -16 -165 -18 -126 -3 -150 -5 -139 -15 2 -2 70 -1 152 3 153 6
167 5 167 -10 0 -5 -67 -9 -152 -9 -88 0 -159 -5 -168 -11 -10 -7 37 -8 153
-3 122 5 167 4 167 -5 0 -6 -8 -11 -17 -11 -108 -2 -299 -12 -303 -16 -3 -3
67 -5 155 -4 180 2 188 2 160 -10 -11 -5 -81 -9 -155 -9 -74 -1 -142 -6 -150
-11 -10 -7 43 -8 156 -3 124 4 173 3 178 -5 7 -12 1 -13 -124 -16 -198 -4
-231 -6 -225 -17 4 -5 19 -8 33 -5 15 3 99 6 187 8 l160 3 0 -40 c0 -40 -1
-40 -42 -46 -31 -4 -43 -2 -43 7 0 7 15 15 33 17 31 4 31 4 -5 5 -51 3 -48 22
3 22 22 0 38 4 35 8 -6 11 -324 2 -351 -9 -12 -5 40 -6 123 -3 129 6 142 5
142 -10 0 -10 -5 -14 -10 -11 -17 10 -270 -6 -264 -17 3 -5 12 -7 19 -4 28 10
209 9 213 -2 2 -6 -16 -12 -45 -15 l-48 -3 52 -2 c67 -3 81 -22 16 -23 -26 0
-57 -5 -68 -10 -14 -6 2 -8 52 -5 50 2 78 -1 90 -10 15 -11 0 -14 -107 -15
-69 -1 -138 -5 -155 -10 -19 -5 16 -6 90 -3 86 3 116 1 108 -7 -6 -6 -50 -14
-99 -18 l-89 -8 83 -2 c47 0 82 -5 82 -11 0 -5 -22 -10 -50 -10 -27 0 -50 -4
-50 -9 0 -6 33 -8 80 -5 93 6 111 -11 23 -21 -89 -10 -94 -13 -20 -14 37 0 67
-5 67 -11 0 -5 -25 -10 -56 -10 -37 0 -53 -4 -49 -11 5 -7 25 -8 56 -4 50 7
70 -7 27 -19 -32 -8 -78 -7 -78 2 0 18 -77 95 -109 108 -19 8 -39 20 -43 27
-6 9 -8 9 -8 0 0 -7 -4 -13 -10 -13 -5 0 -10 7 -10 15 0 8 5 15 10 15 6 0 10
7 10 15 0 25 -19 17 -26 -10 -6 -23 -8 -24 -23 -12 -28 24 -51 27 -75 11 -31
-19 -39 -52 -20 -78 16 -23 19 -96 4 -96 -5 0 -9 20 -8 45 2 34 -2 48 -17 59
-28 22 -41 20 -65 -11 -22 -28 -21 -69 3 -86 8 -6 6 -7 -5 -4 -9 3 -19 -1 -22
-9 -9 -23 -8 -24 14 -24 18 0 19 -3 10 -23 l-11 -22 18 22 c22 27 83 30 83 4
0 -19 -24 -117 -35 -146 -5 -14 -5 -17 2 -10 13 12 43 115 43 146 0 18 3 20
12 11 7 -7 12 -41 12 -84 0 -54 2 -64 8 -42 11 37 2 111 -17 140 -15 23 -5 42
15 29 11 -7 13 4 10 48 -3 51 17 27 29 -35 7 -35 22 -94 33 -132 27 -88 21
-99 -58 -107 -64 -6 -85 -13 -125 -40 -14 -10 -53 -22 -87 -28 -74 -12 -94
-22 -123 -62 -15 -21 -27 -29 -40 -26 -11 3 -17 1 -13 -4 11 -18 36 -8 67 26
36 38 72 55 120 55 18 0 43 7 57 15 78 46 111 56 155 50 36 -6 50 -3 74 14 16
12 44 24 62 28 l32 6 -16 -24 c-9 -13 -17 -28 -17 -33 0 -14 39 24 45 45 4 11
11 19 17 19 25 0 -115 -188 -177 -237 -23 -19 -37 -40 -41 -63 -11 -59 -74
-170 -97 -170 -14 0 -17 4 -12 18 51 128 57 153 40 178 -8 13 -22 24 -31 24
-28 0 -79 -27 -105 -56 -31 -35 -99 -183 -106 -233 -8 -49 10 -30 31 34 9 28
33 83 53 124 30 59 46 79 76 94 50 25 71 17 64 -26 -9 -53 -47 -145 -72 -176
-14 -15 -29 -40 -34 -55 -10 -24 -9 -26 19 -26 28 0 30 3 28 33 -3 31 -2 32
32 30 19 -1 50 -5 68 -8 57 -12 83 8 162 126 41 60 103 137 139 172 l66 62 3
-48 c3 -44 -1 -53 -46 -110 -26 -34 -78 -106 -115 -160 l-67 -97 475 0 c290 0
475 4 475 9 0 12 -17 23 -54 36 -33 11 -86 100 -86 143 0 22 3 24 38 18 20 -4
92 -11 158 -15 105 -8 128 -12 168 -36 37 -21 46 -32 46 -53 0 -15 -7 -36 -15
-46 -8 -11 -15 -28 -15 -38 0 -17 26 -18 560 -18 308 0 560 2 560 5 0 10 -127
63 -192 81 -96 26 -126 45 -210 132 -61 62 -78 86 -78 108 1 73 31 59 154 -70
56 -58 80 -76 116 -86 25 -6 70 -22 100 -35 30 -13 80 -32 110 -41 73 -24 99
-47 82 -74 -12 -20 -9 -20 173 -20 l185 0 0 550 c0 391 -3 550 -11 550 -16 0
-63 37 -126 98 -30 29 -59 50 -64 47 -25 -16 -489 354 -525 418 -11 19 -11 19
-18 -4 -11 -41 -24 0 -16 51 4 25 8 35 9 23 0 -12 6 -25 11 -28 6 -4 10 21 10
68 0 60 4 77 19 91 11 10 25 31 31 47 18 42 -1 63 -51 55 l-38 -6 2 157 c2
168 -11 271 -45 357 -19 49 -15 65 18 66 11 0 55 41 78 75 13 18 14 16 9 -21
-3 -25 -1 -44 6 -48 6 -4 11 -17 11 -29 0 -14 3 -18 10 -11 8 8 7 20 0 40 -6
15 -10 42 -9 59 1 16 -1 37 -4 45 -3 8 -7 39 -10 68 -4 49 -3 51 13 37 9 -8
21 -15 26 -15 5 0 -7 15 -26 33 -65 60 -67 64 -32 95 49 43 61 52 72 52 5 0
10 4 10 9 0 17 -59 -10 -80 -36 -11 -14 -25 -23 -32 -21 -7 3 -18 -2 -25 -11
-9 -13 -16 -14 -30 -5 -13 9 -18 23 -16 55 0 24 -1 37 -3 28 -3 -11 -21 -19
-54 -23 -27 -4 -51 -10 -54 -15 -3 -4 6 -6 19 -3 29 5 35 -18 10 -38 -12 -10
-22 -9 -49 4 -18 8 -39 23 -46 31 -16 20 -70 48 -77 42 -2 -3 4 -10 15 -16 10
-5 37 -25 60 -44 40 -33 40 -35 24 -58 -26 -39 -33 -39 -86 3 -56 44 -157 98
-256 136 -83 31 -256 40 -338 17z m8 -30 c0 -6 -73 -25 -78 -20 -2 2 11 8 29
14 41 11 49 12 49 6z m-185 -80 c-16 -14 -61 -41 -98 -61 -38 -20 -83 -48
-100 -63 -18 -15 -41 -31 -52 -34 -40 -14 68 73 143 114 144 79 157 85 107 44z
m964 -61 c17 -5 6 -55 -15 -67 -19 -11 -18 -46 1 -53 8 -4 15 -14 15 -23 0
-12 -2 -13 -9 -3 -11 18 -59 42 -82 42 -11 0 -19 7 -19 15 0 11 8 13 30 9 34
-7 46 10 36 52 -6 21 -12 25 -31 22 -17 -4 -22 -1 -18 9 5 13 47 11 92 -3z
m111 7 c0 -5 -9 -11 -20 -14 -23 -6 -37 -34 -23 -48 5 -5 24 -11 42 -12 25 -2
31 -6 29 -22 -2 -13 -12 -21 -30 -23 -16 -2 -28 -8 -28 -13 0 -5 -11 -9 -24
-9 -13 0 -27 -6 -29 -12 -4 -8 -6 -9 -6 -2 -1 6 6 17 14 24 8 7 15 20 15 30 0
10 -7 23 -15 30 -8 7 -15 25 -15 41 0 25 4 28 38 32 20 2 40 4 45 5 4 1 7 -2
7 -7z m-921 -76 c16 -70 7 -84 -11 -21 l-14 47 -13 -50 c-15 -59 -31 -75 -31
-32 0 32 39 123 50 116 4 -2 12 -29 19 -60z m-134 -85 c11 -18 -5 -31 -26 -20
-11 6 -17 15 -14 21 8 12 32 12 40 -1z m120 -10 c3 -5 -1 -10 -9 -10 -9 0 -16
5 -16 10 0 6 4 10 9 10 6 0 13 -4 16 -10z m307 -15 c38 -14 77 -25 86 -25 10
0 32 -12 50 -27 31 -27 32 -30 21 -63 -6 -19 -15 -42 -19 -51 -6 -11 -1 -22
13 -35 l22 -19 -42 -3 c-52 -4 -58 -22 -8 -22 24 0 42 -7 56 -22 50 -56 119
-142 119 -148 0 -8 -99 -20 -157 -20 -25 0 -42 -8 -61 -28 -15 -15 -40 -34
-57 -41 -43 -18 -93 -90 -109 -160 -11 -46 -11 -77 -3 -142 5 -46 10 -113 11
-149 1 -44 7 -75 19 -93 22 -35 22 -44 -5 -58 -13 -6 -42 -27 -65 -45 -23 -19
-51 -34 -63 -34 -24 0 -80 30 -80 42 0 4 -22 24 -50 44 -55 39 -60 52 -31 78
10 10 22 34 26 54 3 20 29 75 57 121 44 74 49 88 43 120 -4 20 -9 59 -11 86
-12 122 -23 159 -54 186 -16 14 -60 36 -97 49 -100 34 -127 77 -78 125 19 20
34 25 77 25 47 0 116 -13 183 -35 20 -7 20 -6 1 9 -35 28 -6 39 96 38 51 -1
100 2 108 8 11 7 -8 10 -61 10 -69 0 -78 2 -92 23 -9 13 -29 30 -46 37 -36 15
-38 23 -11 57 13 17 17 33 14 52 -5 23 0 33 28 54 42 34 80 34 170 2z m-885
-33 c16 -18 23 -21 23 -10 0 9 7 18 15 22 19 7 19 -8 1 -27 -13 -12 -13 -17 1
-38 9 -13 -1 -5 -23 17 -21 23 -49 44 -61 48 -13 4 -23 12 -23 17 0 17 41 -1
67 -29z m-13 -398 c-6 -60 -6 -62 29 -99 20 -21 34 -42 31 -47 -3 -4 -6 -82
-7 -172 -1 -91 -4 -162 -6 -160 -2 2 -12 -3 -22 -12 -30 -27 -43 38 -35 181 6
99 4 131 -9 170 -14 40 -15 60 -6 128 6 44 11 85 11 91 0 6 5 4 10 -4 5 -8 7
-42 4 -76z m1304 -192 c3 -21 1 -22 -16 -13 -11 6 -22 18 -26 26 -4 13 -1 16
17 13 14 -2 23 -11 25 -26z m-821 -31 c41 -33 42 -51 3 -51 -24 0 -33 6 -41
27 -6 16 -17 36 -26 45 -14 15 -13 16 9 11 12 -4 38 -18 55 -32z m-177 0 c0
-20 -13 -41 -25 -41 -23 0 -29 22 -10 37 22 15 35 17 35 4z m758 -8 c-31 -67
-67 -90 -95 -62 -9 9 -1 19 30 40 40 27 73 38 65 22z m162 -48 c12 -15 12 -19
-5 -31 -28 -21 -42 -17 -47 14 -3 15 -9 35 -13 46 -7 17 -6 17 22 3 16 -9 36
-23 43 -32z m-280 31 c0 -2 -7 -6 -15 -10 -8 -3 -15 -1 -15 4 0 6 7 10 15 10
8 0 15 -2 15 -4z m153 -147 c48 -13 39 -29 -18 -29 -53 0 -75 8 -75 26 0 17
39 18 93 3z m-793 -59 c37 0 90 4 117 9 59 12 107 2 111 -23 4 -20 -258 -286
-282 -286 -37 0 -186 183 -186 228 0 70 63 110 134 85 21 -7 69 -13 106 -13z
m732 0 c35 -17 80 -30 101 -30 26 0 40 -5 44 -17 4 -9 13 -24 20 -33 7 -8 20
-24 28 -35 16 -19 16 -19 10 10 -3 17 -15 37 -26 45 -18 14 -17 15 18 15 31 0
38 4 43 25 7 29 41 38 59 16 7 -8 17 -47 23 -85 10 -70 10 -72 -18 -108 -16
-21 -39 -59 -50 -84 -27 -58 -73 -92 -109 -83 -16 4 -45 31 -73 67 -62 80
-111 131 -119 123 -4 -3 3 -16 15 -29 22 -23 29 -47 14 -47 -21 0 -86 163 -78
200 6 32 24 80 30 80 2 0 33 -13 68 -30z m-1113 -7 c10 -8 1 -146 -14 -203 -9
-34 -13 -70 -10 -80 3 -10 2 -21 -3 -24 -11 -7 -25 96 -16 118 3 9 2 22 -3 29
-6 6 -13 21 -15 32 -3 11 -9 29 -14 39 -5 13 -4 17 4 12 18 -11 24 11 7 27 -8
9 -15 27 -15 41 0 23 3 24 38 19 20 -3 39 -8 41 -10z m813 -432 c13 -5 35 -12
50 -15 23 -5 68 -58 68 -81 0 -9 -261 1 -297 11 l-23 6 25 20 c22 17 129 66
147 68 4 0 17 -4 30 -9z m-793 -20 c9 -6 14 -33 16 -85 3 -75 -2 -88 -24 -63
-14 18 -22 127 -9 127 6 0 5 7 -2 15 -14 16 -3 20 19 6z m51 -107 c0 -59 -17
-48 -18 11 -1 27 3 43 8 40 6 -3 10 -26 10 -51z m1517 29 c-9 -9 -19 -14 -23
-11 -10 10 6 28 24 28 15 0 15 -1 -1 -17z m-882 -18 c22 -2 83 -4 135 -5 128
-2 142 -6 138 -39 -3 -23 -8 -26 -46 -28 -24 -1 -49 -7 -57 -13 -24 -20 -168
-3 -218 26 -23 13 -53 24 -67 24 -29 0 -50 16 -50 38 0 12 11 13 63 7 34 -4
80 -9 102 -10z m895 -66 c0 -14 -64 -79 -78 -79 -5 0 -12 7 -15 14 -4 11 -1
13 10 9 12 -5 15 -2 10 10 -4 11 4 22 26 36 36 23 47 26 47 10z m-1546 -33
c-3 -15 -8 -25 -11 -23 -2 3 -1 17 3 31 3 15 8 25 11 23 2 -3 1 -17 -3 -31z
m46 3 c0 -6 -5 -7 -10 -4 -6 3 -14 -4 -19 -17 -6 -13 -10 -17 -10 -10 -1 21
19 53 30 47 5 -4 9 -11 9 -16z m636 -9 c19 0 34 -4 34 -10 0 -5 -13 -7 -29 -4
-18 4 -33 1 -42 -9 -12 -13 -15 -12 -26 2 -12 14 -12 14 -7 -1 6 -18 -6 -24
-19 -11 -11 10 25 44 41 38 7 -3 29 -5 48 -5z m712 -21 c-3 -8 -7 -3 -11 10
-4 17 -3 21 5 13 5 -5 8 -16 6 -23z m-1308 -71 c0 -20 -5 -48 -11 -62 l-12
-25 -33 26 c-37 28 -48 78 -19 90 9 3 23 20 32 37 l16 31 13 -30 c7 -16 13
-47 14 -67z m748 70 c24 -24 11 -48 -50 -98 -35 -27 -66 -50 -71 -50 -11 0
-107 91 -107 101 0 17 19 9 25 -12 5 -15 14 -19 33 -17 14 2 27 8 29 14 2 7
-6 10 -22 7 -20 -4 -25 -1 -25 15 0 20 24 32 48 25 6 -3 12 -19 12 -35 0 -40
11 -30 12 11 1 31 7 34 66 31 4 -1 7 -10 6 -21 0 -11 4 -18 10 -16 6 2 11 16
11 30 -1 30 5 33 23 15z m-988 -18 c8 -5 11 -12 8 -16 -10 -9 -38 3 -38 16 0
12 10 13 30 0z m143 -4 c4 -10 1 -13 -9 -9 -7 3 -14 9 -14 14 0 14 17 10 23
-5z m587 -96 c0 -57 15 -71 73 -70 29 1 85 -3 126 -7 71 -9 74 -8 84 14 5 13
14 23 18 23 4 0 2 15 -6 33 -13 31 -12 35 6 50 10 9 23 17 27 17 4 0 26 9 47
20 l40 21 3 -24 c2 -14 -8 -41 -22 -62 -15 -21 -26 -42 -26 -48 0 -17 -72 -81
-112 -99 -48 -22 -192 -17 -218 7 -9 8 -21 15 -27 15 -16 0 -93 87 -93 105 0
9 -7 18 -15 21 -20 8 -29 42 -15 59 6 8 18 11 26 8 10 -4 13 0 8 13 -3 11 12
1 35 -23 30 -31 41 -50 41 -73z m755 100 c-3 -5 -10 -10 -16 -10 -5 0 -9 5 -9
10 0 6 7 10 16 10 8 0 12 -4 9 -10z m-1385 -29 c0 -6 -5 -13 -11 -17 -8 -4 -7
-9 2 -15 11 -7 10 -9 -3 -9 -10 0 -18 7 -18 16 0 11 -6 14 -20 9 -11 -3 -20
-2 -20 4 0 5 12 12 28 14 15 2 30 5 35 6 4 0 7 -3 7 -8z m-80 -17 c0 -9 -5
-14 -12 -12 -18 6 -21 28 -4 28 9 0 16 -7 16 -16z m1638 -31 c-2 -10 -14 -20
-28 -22 -25 -3 -25 -3 -6 18 23 26 39 27 34 4z m287 -31 c-3 -3 -11 0 -18 7
-9 10 -8 11 6 5 10 -3 15 -9 12 -12z m-1925 -2 c0 -5 -14 -10 -31 -10 -17 0
-28 4 -24 10 3 6 17 10 31 10 13 0 24 -4 24 -10z m125 0 c3 -5 -3 -10 -14 -10
-12 0 -21 5 -21 10 0 6 6 10 14 10 8 0 18 -4 21 -10z m-39 -15 c4 -8 10 -12
15 -9 5 3 9 0 9 -5 0 -13 -2 -13 -34 -1 -14 5 -26 14 -26 20 0 16 30 12 36 -5z
m77 -36 c-1 -19 2 -36 7 -39 5 -3 18 -25 28 -49 l20 -43 16 23 c8 13 19 19 23
15 4 -4 0 -12 -10 -17 -23 -14 -22 -28 3 -22 11 3 20 0 20 -5 0 -6 13 -26 29
-45 36 -40 65 -117 48 -122 -39 -11 -56 -11 -61 0 -2 7 1 18 7 24 8 8 6 11
-10 11 -11 0 -24 7 -27 16 -8 22 1 31 16 16 7 -7 19 -12 27 -12 11 0 9 5 -6
20 -12 11 -33 18 -50 17 -22 -2 -29 3 -31 21 -5 33 -45 45 -120 38 -89 -9
-163 -40 -222 -92 -27 -25 -50 -43 -50 -39 0 4 -6 3 -12 -2 -7 -6 -36 -13 -64
-16 l-51 -6 -16 57 c-9 31 -21 82 -27 112 -6 30 -13 63 -15 73 -2 9 1 15 6 11
5 -3 9 3 9 13 1 10 11 -5 23 -33 12 -28 30 -63 41 -78 15 -23 16 -30 5 -37
-10 -6 -6 -9 13 -9 15 0 30 -4 33 -10 4 -6 -5 -10 -21 -10 -22 0 -24 -2 -14
-15 8 -10 18 -12 29 -6 9 5 35 7 58 4 39 -4 43 -2 49 22 4 18 13 25 33 26 l26
2 -27 4 c-50 8 -30 21 40 28 110 10 112 12 15 14 -51 0 -93 5 -93 10 0 5 73
12 163 17 89 4 152 10 140 12 -24 4 -33 32 -10 32 9 0 9 2 -1 9 -7 4 -14 20
-16 34 -1 15 -6 30 -9 34 -11 10 -8 25 3 18 6 -3 10 -1 10 5 0 7 6 10 13 7 7
-2 11 -19 10 -38z m-163 11 c0 -4 -20 -8 -45 -8 -25 -1 -45 3 -45 8 0 6 20 9
45 8 25 0 45 -4 45 -8z m1845 0 c3 -6 -4 -10 -17 -10 -18 0 -20 2 -8 10 19 12
18 12 25 0z m-1725 -31 c0 -5 -9 -9 -20 -9 -22 0 -27 16 -7 23 15 5 27 -1 27
-14z m110 7 c0 -15 -18 -31 -26 -23 -7 7 7 37 17 37 5 0 9 -6 9 -14z m-220 -5
c0 -5 -7 -12 -16 -15 -22 -9 -24 -8 -24 9 0 8 9 15 20 15 11 0 20 -4 20 -9z
m726 -70 c26 -14 69 -24 120 -27 78 -6 80 -6 132 29 28 20 52 34 52 32 0 -2
-5 -27 -11 -54 -15 -69 -50 -95 -117 -87 -26 4 -67 7 -92 7 -113 2 -160 37
-160 118 0 45 1 46 18 24 9 -12 35 -31 58 -42z m831 37 c-3 -8 -6 -5 -6 6 -1
11 2 17 5 13 3 -3 4 -12 1 -19z m-1437 2 c0 -5 -15 -10 -32 -10 -18 0 -57 -3
-85 -6 -35 -5 -53 -3 -53 4 0 13 28 19 108 21 35 0 62 -3 62 -9z m-540 -30 c0
-16 -4 -30 -10 -30 -11 0 -14 43 -3 53 11 12 13 8 13 -23z m2120 26 c0 -13
-43 -76 -52 -76 -5 0 0 13 11 29 12 16 21 34 21 40 0 6 5 11 10 11 6 0 10 -2
10 -4z m-1479 -29 c-10 -9 -11 -8 -5 6 3 10 9 15 12 12 3 -3 0 -11 -7 -18z
m1639 10 c0 -2 -10 -12 -21 -23 -22 -19 -22 -19 -10 4 10 18 31 31 31 19z
m-1740 -17 c0 -6 -31 -11 -70 -11 -38 -1 -75 -2 -82 -3 -6 -1 -13 5 -15 12 -4
9 17 12 81 12 51 0 86 -4 86 -10z m1589 -46 c1 -42 -2 -54 -11 -50 -7 3 -21 9
-30 12 -19 7 -25 24 -8 24 5 0 16 16 24 35 8 19 17 35 19 35 2 0 5 -25 6 -56z
m-2189 26 c0 -5 -10 -10 -22 -10 -19 0 -20 2 -8 10 19 13 30 13 30 0z m2080
-25 c0 -8 -4 -15 -10 -15 -5 0 -10 7 -10 15 0 8 5 15 10 15 6 0 10 -7 10 -15z
m-2093 -1 c-3 -3 -12 -4 -19 -1 -8 3 -5 6 6 6 11 1 17 -2 13 -5z m2390 -26
c-3 -7 -5 -2 -5 12 0 14 2 19 5 13 2 -7 2 -19 0 -25z m-213 -34 c16 -6 22 -35
10 -47 -4 -3 -17 1 -30 10 -19 12 -22 19 -13 29 13 16 12 16 33 8z m-60 -21
c11 -26 -11 -40 -32 -20 -15 16 -15 19 -2 27 21 14 27 12 34 -7z m301 -81 c-3
-3 -11 0 -18 7 -9 10 -8 11 6 5 10 -3 15 -9 12 -12z m-51 -33 c8 -36 -3 -43
-30 -18 -21 19 -21 22 -6 38 20 21 27 16 36 -20z m-1531 -7 c-21 -22 -26 -21
-17 2 3 9 12 16 20 16 11 0 10 -4 -3 -18z m175 -75 c2 -11 -3 -17 -17 -17 -25
0 -38 19 -20 31 19 12 33 6 37 -14z"/>
<path d="M1691 1584 c0 -11 3 -14 6 -6 3 7 2 16 -1 19 -3 4 -6 -2 -5 -13z"/>
<path d="M2187 1423 c-4 -3 -7 -11 -7 -17 0 -6 5 -5 12 2 6 6 9 14 7 17 -3 3
-9 2 -12 -2z"/>
<path d="M1630 1163 c0 -4 5 -15 10 -23 8 -13 10 -13 10 2 0 9 -4 20 -10 23
-5 3 -10 3 -10 -2z"/>
<path d="M1662 1140 c0 -14 2 -19 5 -12 2 6 2 18 0 25 -3 6 -5 1 -5 -13z"/>
<path d="M955 990 c-12 -23 -14 -35 -6 -43 8 -8 11 -7 11 3 0 7 7 21 14 29 10
10 12 22 7 30 -7 11 -13 6 -26 -19z"/>
<path d="M980 950 c0 -5 5 -10 10 -10 6 0 10 5 10 10 0 6 -4 10 -10 10 -5 0
-10 -4 -10 -10z"/>
<path d="M1660 1001 c0 -6 5 -13 10 -16 6 -3 10 1 10 9 0 9 -4 16 -10 16 -5 0
-10 -4 -10 -9z"/>
<path d="M450 813 c0 -14 42 -114 46 -110 4 3 -35 109 -42 116 -2 2 -4 0 -4
-6z"/>
<path d="M918 743 c12 -2 32 -2 45 0 12 2 2 4 -23 4 -25 0 -35 -2 -22 -4z"/>
<path d="M534 619 c-12 -5 2 -8 35 -8 30 -1 52 2 48 5 -9 9 -63 11 -83 3z"/>
<path d="M1666 728 c8 -28 12 -33 20 -25 9 8 -6 47 -17 47 -6 0 -7 -10 -3 -22z"/>
<path d="M1630 726 c0 -15 18 -31 26 -23 7 7 -7 37 -17 37 -5 0 -9 -6 -9 -14z"/>
<path d="M675 2810 c-115 -4 -259 -9 -320 -10 -81 -3 -94 -5 -50 -8 98 -6 605
10 605 19 0 5 -6 8 -12 7 -7 -1 -107 -5 -223 -8z"/>
<path d="M940 2810 c0 -12 118 -12 200 0 45 6 31 7 -72 9 -80 0 -128 -3 -128
-9z"/>
<path d="M58 2783 c12 -2 32 -2 45 0 12 2 2 4 -23 4 -25 0 -35 -2 -22 -4z"/>
<path d="M857 2768 c-3 -7 -12 -30 -21 -50 -14 -33 -14 -37 -1 -32 8 4 15 15
15 25 0 10 4 19 9 19 5 0 12 8 15 17 8 20 -9 41 -17 21z"/>
<path d="M910 2765 c0 -8 2 -15 4 -15 2 0 6 7 10 15 3 8 1 15 -4 15 -6 0 -10
-7 -10 -15z"/>
<path d="M902 2720 c0 -14 2 -19 5 -12 2 6 2 18 0 25 -3 6 -5 1 -5 -13z"/>
<path d="M2595 2730 c3 -5 8 -10 11 -10 2 0 4 5 4 10 0 6 -5 10 -11 10 -5 0
-7 -4 -4 -10z"/>
<path d="M758 2648 c9 -9 15 -9 24 0 9 9 7 12 -12 12 -19 0 -21 -3 -12 -12z"/>
<path d="M761 2484 c0 -11 3 -14 6 -6 3 7 2 16 -1 19 -3 4 -6 -2 -5 -13z"/>
<path d="M822 2480 c0 -14 2 -19 5 -12 2 6 2 18 0 25 -3 6 -5 1 -5 -13z"/>
<path d="M263 2473 c-24 -9 -13 -19 21 -19 26 1 32 4 24 14 -11 12 -24 14 -45
5z"/>
<path d="M187 2463 c-14 -13 -6 -23 11 -15 9 5 23 7 31 4 8 -3 11 0 7 7 -8 12
-39 15 -49 4z"/>
<path d="M196 2412 c-9 -27 17 -62 46 -62 13 0 18 -7 18 -25 0 -26 9 -32 26
-15 5 5 15 5 23 1 10 -7 11 -13 2 -30 -11 -19 -9 -21 13 -21 27 0 54 -34 36
-45 -20 -12 -9 -23 28 -29 108 -19 119 -19 136 5 8 13 13 25 10 28 -3 3 -8 1
-12 -5 -4 -6 -14 -13 -22 -16 -12 -5 -15 2 -12 33 3 24 0 39 -7 39 -6 0 -11
-12 -11 -27 0 -38 -12 -54 -30 -43 -8 6 -11 10 -7 10 5 0 1 7 -7 16 -9 8 -22
12 -28 8 -7 -4 0 7 15 24 22 23 27 35 22 53 l-8 24 -8 -22 c-10 -28 -49 -51
-49 -28 0 8 -9 20 -20 27 -19 12 -19 12 1 44 17 28 17 33 4 44 -12 10 -15 10
-15 0 0 -8 -7 -22 -16 -31 -15 -17 -20 -17 -43 -5 -14 8 -34 17 -44 20 -9 3
-21 16 -26 28 l-8 23 -7 -23z"/>
<path d="M831 2414 c0 -11 3 -14 6 -6 3 7 2 16 -1 19 -3 4 -6 -2 -5 -13z"/>
<path d="M230 2405 c0 -8 7 -15 15 -15 8 0 15 7 15 15 0 8 -7 15 -15 15 -8 0
-15 -7 -15 -15z"/>
<path d="M639 1986 c-2 -2 -139 -6 -304 -10 -165 -3 -301 -6 -302 -6 -2 0 -3
-5 -3 -11 0 -9 67 -10 263 -4 144 5 276 9 292 10 17 1 45 3 63 3 19 1 31 6 27
12 -6 10 -28 14 -36 6z"/>
<path d="M2800 1910 c-12 -7 -12 -12 -2 -22 9 -9 12 -9 12 1 0 9 8 11 27 6 23
-5 25 -4 14 9 -15 18 -29 20 -51 6z"/>
<path d="M2730 1900 c-20 -13 -10 -19 22 -13 15 3 25 9 22 14 -7 12 -25 11
-44 -1z"/>
<path d="M2736 1853 c-9 -30 8 -59 39 -67 19 -5 25 -13 25 -33 0 -25 1 -25 19
-9 15 13 20 14 29 3 7 -8 7 -18 2 -27 -15 -23 -12 -28 14 -23 18 4 27 -1 37
-18 9 -17 9 -24 0 -27 -20 -7 -12 -22 13 -22 13 0 40 -7 59 -15 42 -17 79 -8
96 24 16 29 13 38 -4 15 -8 -10 -15 -15 -15 -10 0 5 -6 4 -13 -2 -10 -8 -12
-2 -9 29 3 26 0 39 -8 39 -7 0 -10 -8 -7 -20 3 -10 0 -26 -7 -34 -10 -13 -13
-13 -30 -1 -11 8 -16 15 -10 15 5 0 2 4 -6 10 -12 7 -12 12 4 29 15 17 17 25
8 43 -8 17 -11 18 -11 7 -1 -9 -8 -22 -16 -29 -12 -10 -20 -8 -43 12 l-28 23
18 31 c16 28 17 33 3 44 -12 10 -15 10 -15 0 0 -8 -7 -22 -16 -31 -15 -17 -20
-17 -43 -5 -14 8 -34 17 -44 20 -9 3 -21 16 -26 28 l-8 23 -7 -22z"/>
<path d="M2770 1845 c0 -8 7 -15 15 -15 8 0 15 7 15 15 0 8 -7 15 -15 15 -8 0
-15 -7 -15 -15z"/>
<path d="M2526 1832 c-2 -4 -1 -14 5 -22 7 -12 9 -10 9 8 0 23 -5 28 -14 14z"/>
<path d="M440 1742 c0 -5 9 -12 21 -15 13 -3 19 -1 16 6 -5 15 -37 22 -37 9z"/>
<path d="M570 1720 c-31 -7 -29 -7 20 -8 30 0 64 3 75 8 25 11 -43 11 -95 0z"/>
<path d="M733 1723 c9 -2 23 -2 30 0 6 3 -1 5 -18 5 -16 0 -22 -2 -12 -5z"/>
<path d="M498 1713 c6 -2 18 -2 25 0 6 3 1 5 -13 5 -14 0 -19 -2 -12 -5z"/>
<path d="M565 1690 c-27 -11 85 -12 140 -1 34 8 28 9 -40 9 -44 0 -89 -3 -100
-8z"/>
<path d="M68 1683 c6 -2 18 -2 25 0 6 3 1 5 -13 5 -14 0 -19 -2 -12 -5z"/>
<path d="M173 1683 c9 -2 23 -2 30 0 6 3 -1 5 -18 5 -16 0 -22 -2 -12 -5z"/>
<path d="M457 1670 c-14 -17 -30 -20 -94 -21 -43 0 -96 -4 -118 -8 -34 -8 -28
-9 42 -10 54 -1 94 -7 117 -17 46 -23 63 -14 68 35 2 23 3 41 3 41 0 0 -8 -9
-18 -20z"/>
<path d="M507 1683 c-4 -3 -7 -67 -7 -141 l0 -134 23 6 c12 3 73 6 135 6 65 0
112 4 112 10 0 6 -49 7 -130 3 -95 -4 -130 -3 -130 5 0 8 27 12 83 13 45 0
105 4 132 9 40 6 22 8 -85 10 -107 2 -125 4 -85 10 28 5 88 9 134 9 46 1 81 4
77 8 -4 4 -63 6 -131 4 l-125 -3 0 26 0 26 108 1 c59 1 118 5 132 10 16 5 -23
7 -107 6 -137 -3 -142 -1 -127 37 5 13 26 16 127 16 66 0 117 3 113 8 -4 4
-60 7 -124 7 -112 0 -117 1 -120 22 -2 14 3 23 15 26 14 4 14 5 2 6 -9 0 -19
-2 -22 -6z"/>
<path d="M630 1660 l-45 -7 50 -1 c28 0 61 4 75 8 24 8 24 8 -5 8 -16 -1 -50
-4 -75 -8z"/>
<path d="M10 1633 c0 -5 17 -9 38 -11 20 -1 38 -7 40 -12 2 -6 60 -9 145 -9
l142 2 -103 7 c-57 4 -109 13 -115 19 -12 12 -147 16 -147 4z"/>
<path d="M48 1603 c7 -3 16 -2 19 1 4 3 -2 6 -13 5 -11 0 -14 -3 -6 -6z"/>
<path d="M613 1603 c-59 -3 -93 -8 -93 -15 0 -7 21 -9 68 -5 37 4 94 7 127 7
42 0 56 3 45 10 -8 5 -24 9 -35 8 -11 -1 -62 -4 -112 -5z"/>
<path d="M153 1573 c-79 -2 -143 -7 -143 -11 0 -4 85 -6 189 -4 l190 3 17 -26
c15 -23 16 -48 11 -227 -4 -111 -4 -199 -1 -196 12 13 17 385 5 418 -9 26 -8
35 1 42 7 4 -18 7 -57 6 -38 -1 -134 -4 -212 -5z"/>
<path d="M585 1530 c-60 -6 -51 -7 62 -8 114 -2 133 -4 142 -19 6 -10 11 -13
11 -7 0 6 -8 18 -18 27 -20 18 -62 19 -197 7z"/>
<path d="M500 1390 c0 -11 111 -12 210 0 55 6 43 7 -72 8 -87 1 -138 -2 -138
-8z"/>
<path d="M443 1220 c0 -47 2 -66 4 -42 2 23 2 61 0 85 -2 23 -4 4 -4 -43z"/>
<path d="M463 1085 c0 -27 2 -38 4 -22 2 15 2 37 0 50 -2 12 -4 0 -4 -28z"/>
<path d="M423 1050 c0 -30 2 -43 4 -27 2 15 2 39 0 55 -2 15 -4 2 -4 -28z"/>
<path d="M520 1011 c0 -5 9 -7 20 -4 11 3 20 7 20 9 0 2 -9 4 -20 4 -11 0 -20
-4 -20 -9z"/>
<path d="M100 739 c0 -5 23 -9 50 -9 65 0 65 14 0 17 -28 1 -50 -3 -50 -8z"/>
<path d="M401 714 c0 -11 3 -14 6 -6 3 7 2 16 -1 19 -3 4 -6 -2 -5 -13z"/>
<path d="M282 640 c-7 -11 -8 -20 -3 -20 9 0 24 30 18 36 -1 2 -8 -6 -15 -16z"/>
<path d="M410 655 c0 -5 5 -17 10 -25 5 -8 10 -10 10 -5 0 6 -5 17 -10 25 -5
8 -10 11 -10 5z"/>
<path d="M209 614 c-5 -15 -8 -29 -5 -31 2 -2 8 10 14 26 13 38 5 41 -9 5z"/>
<path d="M421 394 c0 -11 3 -14 6 -6 3 7 2 16 -1 19 -3 4 -6 -2 -5 -13z"/>
<path d="M1613 85 c-3 -9 -2 -19 1 -23 8 -8 38 10 44 26 6 18 -38 14 -45 -3z"/>
</g>
</svg>
